<?xml version="1.0" encoding="UTF-8"?>
<svg id="Capa_2" data-name="Capa 2" xmlns="http://www.w3.org/2000/svg" viewBox="0 0 323.07 287.1">
  <defs>
    <style>
      .cls-1 {
        fill: #5b5853;
      }
    </style>
  </defs>
  <g id="Texto">
    <g>
      <g>
        <path class="cls-1" d="M.72,103.57c1.55-9.3,6.07-17.92,13.15-24.14,8.91-7.84,24.08-11.05,39.57,3.79,26.95,25.8,27.39,48.36,26.97,54.36-.08,1.16-.15,2.31-.18,3.47-.22,8.68-3.4,43.38-40.78,27.23,0,0-35.01-11.33-39.21-51.41-.46-4.43-.26-8.91.47-13.31h0Z"/>
        <path class="cls-1" d="M154.38,50.29c-1.56-18.12-3.93-21.25-4.73-23.71-.45-1.39-1.19-3.35-2.09-4.88-5.65-9.6-12.29-17.32-22.61-20.12-3.34-1.19-6.83-1.92-10.33-1.43-3.93.56-5.15.93-9.25,2.61-10.89,4.53-17.03,12.66-20.32,28.11-.42,1.98-.83,3.91-1.18,5.86-1.08,6.05-1.26,12.36-.47,19.27,1.12,9.84,2.6,16.85,6.06,24.33h0c8.57,18.08,16.41,27.61,31.06,27.61,15.4,0,28.26-13.02,31.34-30.37.2-1.12.5-2.07.7-3.35,1.18-7.63,2.5-16.11,1.83-23.94Z"/>
        <path class="cls-1" d="M182.78,44.73c4.46-17.63,7.32-20.33,8.5-22.63.67-1.3,1.72-3.12,2.85-4.48,7.13-8.57,14.93-15.11,25.57-16.2,3.49-.64,7.05-.79,10.42.26,3.79,1.19,4.94,1.75,8.71,4.07,10.01,6.23,14.76,15.25,15.51,31.03.1,2.02.19,3.99.22,5.97.08,6.15-.75,12.4-2.65,19.09-2.7,9.53-5.29,16.21-9.92,23.03h0c-11.38,16.46-20.66,24.59-35.11,22.23-15.2-2.49-25.78-17.41-26.02-35.03-.02-1.14-.16-2.12-.15-3.42.07-7.72.13-16.3,2.07-23.92Z"/>
        <path class="cls-1" d="M322.35,104.13c-1.55-9.3-6.07-17.92-13.15-24.14-8.91-7.84-24.08-11.05-39.57,3.79-26.95,25.8-27.39,48.36-26.97,54.36.08,1.16.15,2.31.18,3.47.22,8.68,3.4,43.38,40.78,27.23,0,0,35.01-11.33,39.21-51.41.46-4.43.26-8.91-.47-13.31h0Z"/>
      </g>
      <path class="cls-1" d="M262.3,237.48c-5.05-19.77-25.65-60.89-75.85-87.86-1.11-.59-2.03-1.08-3.55-1.87-6.32-3.3-16.23-4.99-21.18-4.89-5.43.1-13.17,1.83-18.09,3.65-.83.31.82-.33,0,0-55.22,22.28-76.31,65.83-82.35,89.76-.22.86-.49,1.7-.77,2.54-1.18,3.44-1.83,7.1-1.83,10.89,0,20.66,18.9,37.41,42.22,37.41,5.84,0,11.4-1.05,16.46-2.95,2.19-.82,4.28-1.81,6.27-2.93,2.67-1.52,8.02-4.62,10.72-6.08,14.45-7.8,32.2-9.4,53.1-.72,3.82,1.59,4.4,2.45,8.36,4.23,3.71,1.66,7.04,4.27,11.06,5.66,4.75,1.64,9.91,2.55,15.31,2.55,23.32,0,42.22-16.75,42.22-37.41,0-3.41-.52-6.71-1.48-9.85-.22-.7-.43-1.4-.61-2.11Z"/>
    </g>
  </g>
</svg>