<?xml version="1.0" encoding="UTF-8"?>
<svg id="Capa_2" data-name="Capa 2" xmlns="http://www.w3.org/2000/svg" viewBox="0 0 603.32 44.53">
  <defs>
    <style>
      .cls-1 {
        fill: #5b5853;
      }
    </style>
  </defs>
  <g id="Texto">
    <g>
      <path class="cls-1" d="M18.11,6.5c2.3,1.19,4.08,2.88,5.34,5.07,1.25,2.19,1.88,4.74,1.88,7.64s-.63,5.43-1.88,7.59c-1.26,2.17-3.04,3.84-5.34,5.03-2.3,1.19-4.97,1.78-8.01,1.78H0V4.72h10.1c3.03,0,5.7.59,8.01,1.78ZM16.93,26.2c1.66-1.66,2.48-3.99,2.48-6.99s-.83-5.36-2.48-7.06c-1.66-1.7-4-2.54-7.04-2.54h-4.1v19.08h4.1c3.03,0,5.38-.83,7.04-2.48Z"/>
      <path class="cls-1" d="M48.38,23.88h-16.76c.14,1.66.72,2.95,1.74,3.89,1.02.94,2.28,1.41,3.77,1.41,2.15,0,3.68-.92,4.59-2.77h6.25c-.66,2.21-1.93,4.02-3.81,5.44-1.88,1.42-4.18,2.13-6.91,2.13-2.21,0-4.19-.49-5.94-1.47-1.75-.98-3.12-2.37-4.1-4.16-.98-1.79-1.47-3.86-1.47-6.21s.48-4.46,1.45-6.25c.97-1.79,2.32-3.17,4.06-4.14s3.74-1.45,6-1.45,4.13.47,5.86,1.41c1.72.94,3.06,2.27,4.01,3.99.95,1.72,1.43,3.7,1.43,5.94,0,.83-.06,1.57-.17,2.24ZM42.54,19.99c-.03-1.49-.57-2.68-1.61-3.58-1.05-.9-2.33-1.34-3.85-1.34-1.44,0-2.64.43-3.62,1.3-.98.87-1.58,2.08-1.8,3.62h10.88Z"/>
      <path class="cls-1" d="M56.12,2.98v30.63h-5.79V2.98h5.79Z"/>
      <path class="cls-1" d="M59.78,6.97c-.68-.65-1.01-1.46-1.01-2.42s.34-1.77,1.01-2.42c.68-.65,1.52-.97,2.54-.97s1.87.33,2.55.97c.68.65,1.01,1.46,1.01,2.42s-.34,1.77-1.01,2.42c-.68.65-1.52.97-2.55.97s-1.87-.32-2.54-.97ZM65.18,10.68v22.93h-5.79V10.68h5.79Z"/>
      <path class="cls-1" d="M78.01,28.27l5.79-17.59h6.17l-8.48,22.93h-7.04l-8.44-22.93h6.21l5.79,17.59Z"/>
      <path class="cls-1" d="M111.95,23.88h-16.76c.14,1.66.72,2.95,1.74,3.89,1.02.94,2.28,1.41,3.77,1.41,2.15,0,3.68-.92,4.59-2.77h6.25c-.66,2.21-1.93,4.02-3.81,5.44-1.88,1.42-4.18,2.13-6.91,2.13-2.21,0-4.19-.49-5.94-1.47-1.75-.98-3.12-2.37-4.1-4.16-.98-1.79-1.47-3.86-1.47-6.21s.48-4.46,1.45-6.25c.97-1.79,2.32-3.17,4.06-4.14s3.74-1.45,6-1.45,4.13.47,5.86,1.41c1.72.94,3.06,2.27,4.01,3.99.95,1.72,1.43,3.7,1.43,5.94,0,.83-.06,1.57-.17,2.24ZM106.11,19.99c-.03-1.49-.57-2.68-1.61-3.58-1.05-.9-2.33-1.34-3.85-1.34-1.44,0-2.64.43-3.62,1.3-.98.87-1.58,2.08-1.8,3.62h10.88Z"/>
      <path class="cls-1" d="M122.61,11.38c1.2-.69,2.57-1.03,4.12-1.03v6.08h-1.53c-1.82,0-3.19.43-4.12,1.28-.92.86-1.39,2.35-1.39,4.47v11.42h-5.79V10.68h5.79v3.56c.74-1.21,1.72-2.17,2.92-2.86Z"/>
      <path class="cls-1" d="M150.11,10.68l-14.2,33.77h-6.17l4.97-11.42-9.19-22.35h6.5l5.92,16.02,6-16.02h6.17Z"/>
      <path class="cls-1" d="M166.89,11.38c1.2-.69,2.57-1.03,4.12-1.03v6.08h-1.53c-1.82,0-3.19.43-4.12,1.28-.92.86-1.39,2.35-1.39,4.47v11.42h-5.79V10.68h5.79v3.56c.74-1.21,1.72-2.17,2.92-2.86Z"/>
      <path class="cls-1" d="M172.35,15.89c.92-1.79,2.18-3.17,3.77-4.14,1.59-.97,3.36-1.45,5.32-1.45,1.71,0,3.21.35,4.49,1.04,1.28.69,2.31,1.56,3.08,2.61v-3.27h5.84v22.93h-5.84v-3.35c-.75,1.08-1.77,1.97-3.08,2.67-1.31.7-2.82,1.05-4.53,1.05-1.93,0-3.69-.5-5.28-1.49-1.59-.99-2.84-2.39-3.77-4.2-.92-1.81-1.39-3.88-1.39-6.23s.46-4.37,1.39-6.17ZM188.18,18.52c-.55-1.01-1.3-1.78-2.23-2.32-.94-.54-1.95-.81-3.02-.81s-2.07.26-2.98.79c-.91.52-1.65,1.29-2.21,2.3-.57,1.01-.85,2.2-.85,3.58s.28,2.59.85,3.62c.57,1.04,1.31,1.83,2.23,2.38.92.55,1.91.83,2.96.83s2.08-.27,3.02-.81c.94-.54,1.68-1.31,2.23-2.32.55-1.01.83-2.21.83-3.62s-.28-2.61-.83-3.62ZM188.22,4.72l-9.52,4.35v-4.14l9.52-4.92v4.72Z"/>
      <path class="cls-1" d="M206.95,11.36c1.31-.7,2.81-1.06,4.49-1.06,1.96,0,3.73.48,5.32,1.45,1.59.97,2.84,2.34,3.77,4.12.92,1.78,1.39,3.84,1.39,6.19s-.46,4.42-1.39,6.23c-.92,1.81-2.18,3.21-3.77,4.2-1.59.99-3.36,1.49-5.32,1.49-1.68,0-3.17-.34-4.45-1.03-1.28-.69-2.32-1.56-3.12-2.61v14.2h-5.79V10.68h5.79v3.31c.74-1.05,1.77-1.92,3.08-2.63ZM215.15,18.48c-.57-1.01-1.31-1.77-2.23-2.3-.92-.52-1.92-.79-3-.79s-2.04.27-2.96.81c-.92.54-1.67,1.32-2.23,2.34-.57,1.02-.85,2.22-.85,3.6s.28,2.58.85,3.6c.57,1.02,1.31,1.8,2.23,2.34.92.54,1.91.81,2.96.81s2.08-.28,3-.83c.92-.55,1.67-1.34,2.23-2.36.56-1.02.85-2.23.85-3.64s-.28-2.57-.85-3.58Z"/>
      <path class="cls-1" d="M224.08,6.97c-.68-.65-1.01-1.46-1.01-2.42s.34-1.77,1.01-2.42c.68-.65,1.52-.97,2.54-.97s1.87.33,2.55.97c.68.65,1.01,1.46,1.01,2.42s-.34,1.77-1.01,2.42c-.68.65-1.52.97-2.55.97s-1.87-.32-2.54-.97ZM229.49,10.68v22.93h-5.79V10.68h5.79Z"/>
      <path class="cls-1" d="M232.65,15.89c.92-1.79,2.19-3.17,3.79-4.14,1.6-.97,3.38-1.45,5.34-1.45,1.49,0,2.91.33,4.26.97,1.35.65,2.43,1.51,3.23,2.59V2.98h5.88v30.63h-5.88v-3.39c-.72,1.13-1.72,2.04-3.02,2.73s-2.8,1.03-4.51,1.03c-1.93,0-3.7-.5-5.3-1.49-1.6-.99-2.86-2.39-3.79-4.2-.92-1.81-1.39-3.88-1.39-6.23s.46-4.37,1.39-6.17ZM248.48,18.52c-.55-1.01-1.3-1.78-2.23-2.32s-1.94-.81-3.02-.81-2.07.26-2.98.79c-.91.52-1.65,1.29-2.21,2.3-.57,1.01-.85,2.2-.85,3.58s.28,2.59.85,3.62c.57,1.04,1.31,1.83,2.23,2.38.92.55,1.91.83,2.96.83s2.08-.27,3.02-.81,1.68-1.31,2.23-2.32c.55-1.01.83-2.21.83-3.62s-.28-2.61-.83-3.62Z"/>
      <path class="cls-1" d="M262.59,32.51c-1.77-.98-3.15-2.37-4.16-4.16-1.01-1.79-1.51-3.86-1.51-6.21s.52-4.41,1.55-6.21c1.04-1.79,2.45-3.18,4.24-4.16,1.79-.98,3.79-1.47,6-1.47s4.21.49,6,1.47c1.79.98,3.21,2.37,4.24,4.16,1.04,1.79,1.55,3.86,1.55,6.21s-.53,4.42-1.59,6.21c-1.06,1.79-2.5,3.18-4.3,4.16-1.81.98-3.83,1.47-6.06,1.47s-4.19-.49-5.96-1.47ZM271.51,28.16c.92-.51,1.66-1.28,2.21-2.3.55-1.02.83-2.26.83-3.72,0-2.18-.57-3.86-1.72-5.03-1.15-1.17-2.54-1.76-4.2-1.76s-3.04.59-4.16,1.76-1.68,2.85-1.68,5.03.54,3.86,1.63,5.03c1.09,1.17,2.46,1.76,4.12,1.76,1.05,0,2.03-.25,2.96-.77Z"/>
      <path class="cls-1" d="M298.62,11.36c1.31-.7,2.81-1.06,4.49-1.06,1.96,0,3.73.48,5.32,1.45,1.59.97,2.84,2.34,3.77,4.12.92,1.78,1.39,3.84,1.39,6.19s-.46,4.42-1.39,6.23c-.92,1.81-2.18,3.21-3.77,4.2-1.59.99-3.36,1.49-5.32,1.49-1.68,0-3.17-.34-4.45-1.03s-2.33-1.56-3.12-2.61v14.2h-5.79V10.68h5.79v3.31c.75-1.05,1.77-1.92,3.08-2.63ZM306.81,18.48c-.57-1.01-1.31-1.77-2.24-2.3-.92-.52-1.92-.79-3-.79s-2.04.27-2.96.81c-.92.54-1.67,1.32-2.24,2.34s-.85,2.22-.85,3.6.28,2.58.85,3.6,1.31,1.8,2.24,2.34c.92.54,1.91.81,2.96.81s2.08-.28,3-.83c.92-.55,1.67-1.34,2.24-2.36.57-1.02.85-2.23.85-3.64s-.28-2.57-.85-3.58Z"/>
      <path class="cls-1" d="M315.26,15.89c.92-1.79,2.18-3.17,3.77-4.14,1.59-.97,3.36-1.45,5.32-1.45,1.71,0,3.21.35,4.49,1.04s2.31,1.56,3.08,2.61v-3.27h5.84v22.93h-5.84v-3.35c-.75,1.08-1.77,1.97-3.08,2.67-1.31.7-2.82,1.05-4.53,1.05-1.93,0-3.69-.5-5.28-1.49-1.59-.99-2.84-2.39-3.77-4.2-.92-1.81-1.39-3.88-1.39-6.23s.46-4.37,1.39-6.17ZM331.09,18.52c-.55-1.01-1.3-1.78-2.23-2.32-.94-.54-1.95-.81-3.02-.81s-2.07.26-2.98.79c-.91.52-1.65,1.29-2.21,2.3-.57,1.01-.85,2.2-.85,3.58s.28,2.59.85,3.62c.56,1.04,1.31,1.83,2.23,2.38.92.55,1.91.83,2.96.83s2.08-.27,3.02-.81c.94-.54,1.68-1.31,2.23-2.32.55-1.01.83-2.21.83-3.62s-.28-2.61-.83-3.62Z"/>
      <path class="cls-1" d="M349.69,11.38c1.2-.69,2.57-1.03,4.12-1.03v6.08h-1.53c-1.82,0-3.19.43-4.12,1.28-.92.86-1.39,2.35-1.39,4.47v11.42h-5.79V10.68h5.79v3.56c.75-1.21,1.72-2.17,2.92-2.86Z"/>
      <path class="cls-1" d="M355.15,15.89c.92-1.79,2.18-3.17,3.77-4.14,1.59-.97,3.36-1.45,5.32-1.45,1.71,0,3.21.35,4.49,1.04s2.31,1.56,3.08,2.61v-3.27h5.84v22.93h-5.84v-3.35c-.75,1.08-1.77,1.97-3.08,2.67-1.31.7-2.82,1.05-4.53,1.05-1.93,0-3.69-.5-5.28-1.49-1.59-.99-2.84-2.39-3.77-4.2-.92-1.81-1.39-3.88-1.39-6.23s.46-4.37,1.39-6.17ZM370.98,18.52c-.55-1.01-1.3-1.78-2.23-2.32-.94-.54-1.95-.81-3.02-.81s-2.07.26-2.98.79c-.91.52-1.65,1.29-2.21,2.3-.57,1.01-.85,2.2-.85,3.58s.28,2.59.85,3.62c.56,1.04,1.31,1.83,2.23,2.38.92.55,1.91.83,2.96.83s2.08-.27,3.02-.81c.94-.54,1.68-1.31,2.23-2.32.55-1.01.83-2.21.83-3.62s-.28-2.61-.83-3.62Z"/>
      <path class="cls-1" d="M395.03,15.44v11.09c0,.77.19,1.33.56,1.68.37.35,1,.52,1.88.52h2.69v4.88h-3.64c-4.88,0-7.33-2.37-7.33-7.12v-11.05h-2.73v-4.76h2.73v-5.67h5.83v5.67h5.13v4.76h-5.13Z"/>
      <path class="cls-1" d="M423.54,10.68v22.93h-5.84v-2.9c-.75.99-1.72,1.77-2.92,2.34s-2.5.85-3.91.85c-1.79,0-3.38-.38-4.76-1.14-1.38-.76-2.46-1.88-3.25-3.35-.79-1.48-1.18-3.23-1.18-5.28v-13.45h5.79v12.62c0,1.82.46,3.22,1.37,4.2s2.15,1.47,3.72,1.47,2.86-.49,3.77-1.47c.91-.98,1.37-2.38,1.37-4.2v-12.62h5.84Z"/>
      <path class="cls-1" d="M469.5,12.93c1.72,1.72,2.59,4.13,2.59,7.22v13.45h-5.79v-12.66c0-1.79-.46-3.17-1.37-4.12s-2.15-1.43-3.72-1.43-2.82.48-3.75,1.43-1.39,2.33-1.39,4.12v12.66h-5.79v-12.66c0-1.79-.46-3.17-1.37-4.12s-2.15-1.43-3.72-1.43-2.86.48-3.79,1.43c-.92.95-1.39,2.33-1.39,4.12v12.66h-5.79V10.68h5.79v2.77c.75-.97,1.7-1.72,2.88-2.28,1.17-.55,2.46-.83,3.87-.83,1.79,0,3.39.38,4.8,1.14s2.5,1.84,3.27,3.25c.75-1.32,1.83-2.39,3.25-3.19s2.96-1.2,4.61-1.2c2.81,0,5.08.86,6.81,2.59Z"/>
      <path class="cls-1" d="M475.05,15.89c.92-1.79,2.18-3.17,3.77-4.14,1.59-.97,3.36-1.45,5.32-1.45,1.71,0,3.21.35,4.49,1.04s2.31,1.56,3.08,2.61v-3.27h5.84v22.93h-5.84v-3.35c-.75,1.08-1.77,1.97-3.08,2.67-1.31.7-2.82,1.05-4.53,1.05-1.93,0-3.69-.5-5.28-1.49-1.59-.99-2.84-2.39-3.77-4.2-.92-1.81-1.39-3.88-1.39-6.23s.46-4.37,1.39-6.17ZM490.88,18.52c-.55-1.01-1.3-1.78-2.23-2.32-.94-.54-1.95-.81-3.02-.81s-2.07.26-2.98.79c-.91.52-1.65,1.29-2.21,2.3-.57,1.01-.85,2.2-.85,3.58s.28,2.59.85,3.62c.56,1.04,1.31,1.83,2.23,2.38.92.55,1.91.83,2.96.83s2.08-.27,3.02-.81c.94-.54,1.68-1.31,2.23-2.32.55-1.01.83-2.21.83-3.62s-.28-2.61-.83-3.62Z"/>
      <path class="cls-1" d="M504.49,32.96c-1.49-.68-2.67-1.59-3.54-2.75-.87-1.16-1.34-2.44-1.43-3.85h5.83c.11.88.54,1.61,1.3,2.19.76.58,1.7.87,2.83.87s1.97-.22,2.59-.66.93-1.01.93-1.7c0-.75-.38-1.3-1.14-1.68-.76-.37-1.97-.78-3.62-1.22-1.71-.41-3.11-.84-4.2-1.28s-2.03-1.12-2.81-2.03c-.79-.91-1.18-2.14-1.18-3.68,0-1.27.37-2.43,1.1-3.48.73-1.05,1.78-1.88,3.15-2.48,1.37-.61,2.97-.91,4.82-.91,2.73,0,4.91.68,6.54,2.05s2.52,3.21,2.69,5.53h-5.55c-.08-.91-.46-1.63-1.14-2.17s-1.58-.81-2.71-.81c-1.05,0-1.86.19-2.42.58s-.85.92-.85,1.61c0,.77.39,1.36,1.16,1.76s1.97.81,3.6,1.22c1.66.41,3.02.84,4.1,1.28s2.01,1.12,2.79,2.05c.79.92,1.19,2.15,1.22,3.66,0,1.32-.37,2.51-1.1,3.56s-1.78,1.87-3.14,2.46c-1.37.59-2.96.89-4.78.89s-3.56-.34-5.05-1.01Z"/>
      <path class="cls-1" d="M520.84,15.91c.96-1.78,2.3-3.16,4.01-4.14,1.71-.98,3.67-1.47,5.88-1.47,2.84,0,5.19.71,7.06,2.13s3.11,3.41,3.75,5.98h-6.25c-.33-.99-.89-1.77-1.68-2.34-.79-.57-1.76-.85-2.92-.85-1.66,0-2.97.6-3.93,1.8s-1.45,2.9-1.45,5.11.48,3.87,1.45,5.07,2.28,1.8,3.93,1.8c2.34,0,3.88-1.05,4.59-3.15h6.25c-.64,2.48-1.89,4.46-3.77,5.92-1.88,1.46-4.22,2.19-7.04,2.19-2.21,0-4.17-.49-5.88-1.47-1.71-.98-3.05-2.36-4.01-4.14-.97-1.78-1.45-3.86-1.45-6.23s.48-4.45,1.45-6.23Z"/>
      <path class="cls-1" d="M547.58,32.51c-1.77-.98-3.15-2.37-4.16-4.16-1.01-1.79-1.51-3.86-1.51-6.21s.52-4.41,1.55-6.21c1.04-1.79,2.45-3.18,4.24-4.16,1.79-.98,3.79-1.47,6-1.47s4.21.49,6,1.47c1.79.98,3.21,2.37,4.24,4.16,1.04,1.79,1.55,3.86,1.55,6.21s-.53,4.42-1.59,6.21c-1.06,1.79-2.5,3.18-4.3,4.16-1.81.98-3.83,1.47-6.06,1.47s-4.19-.49-5.96-1.47ZM556.5,28.16c.92-.51,1.66-1.28,2.21-2.3.55-1.02.83-2.26.83-3.72,0-2.18-.57-3.86-1.72-5.03-1.15-1.17-2.54-1.76-4.2-1.76s-3.04.59-4.16,1.76-1.68,2.85-1.68,5.03.54,3.86,1.63,5.03c1.09,1.17,2.46,1.76,4.12,1.76,1.05,0,2.03-.25,2.96-.77Z"/>
      <path class="cls-1" d="M574.06,15.44v11.09c0,.77.19,1.33.56,1.68.37.35,1,.52,1.88.52h2.69v4.88h-3.64c-4.88,0-7.33-2.37-7.33-7.12v-11.05h-2.73v-4.76h2.73v-5.67h5.83v5.67h5.13v4.76h-5.13Z"/>
      <path class="cls-1" d="M580.83,15.89c.92-1.79,2.18-3.17,3.77-4.14,1.59-.97,3.36-1.45,5.32-1.45,1.71,0,3.21.35,4.49,1.04s2.31,1.56,3.08,2.61v-3.27h5.84v22.93h-5.84v-3.35c-.75,1.08-1.77,1.97-3.08,2.67-1.31.7-2.82,1.05-4.53,1.05-1.93,0-3.69-.5-5.28-1.49-1.59-.99-2.84-2.39-3.77-4.2-.92-1.81-1.39-3.88-1.39-6.23s.46-4.37,1.39-6.17ZM596.66,18.52c-.55-1.01-1.3-1.78-2.23-2.32-.94-.54-1.95-.81-3.02-.81s-2.07.26-2.98.79c-.91.52-1.65,1.29-2.21,2.3-.57,1.01-.85,2.2-.85,3.58s.28,2.59.85,3.62c.56,1.04,1.31,1.83,2.23,2.38.92.55,1.91.83,2.96.83s2.08-.27,3.02-.81c.94-.54,1.68-1.31,2.23-2.32.55-1.01.83-2.21.83-3.62s-.28-2.61-.83-3.62Z"/>
    </g>
  </g>
</svg>