<?xml version="1.0" encoding="UTF-8"?>
<svg id="Capa_2" data-name="Capa 2" xmlns="http://www.w3.org/2000/svg" viewBox="0 0 687.12 479.88">
  <defs>
    <style>
      .cls-1 {
        fill: #050505;
      }
    </style>
  </defs>
  <g id="Texto">
    <g>
      <g>
        <g>
          <path class="cls-1" d="M178.94,103.57c1.55-9.3,6.07-17.92,13.15-24.14,8.91-7.84,24.08-11.05,39.57,3.79,26.95,25.8,27.39,48.36,26.97,54.36-.08,1.16-.15,2.31-.18,3.47-.22,8.68-3.4,43.38-40.78,27.23,0,0-35.01-11.33-39.21-51.41-.46-4.43-.26-8.91.47-13.31h0Z"/>
          <path class="cls-1" d="M332.6,50.29c-1.56-18.12-3.93-21.25-4.73-23.71-.45-1.39-1.19-3.35-2.09-4.88-5.65-9.6-12.29-17.32-22.61-20.12-3.34-1.19-6.83-1.92-10.33-1.43-3.93.56-5.15.93-9.25,2.61-10.89,4.53-17.03,12.66-20.32,28.11-.42,1.98-.83,3.91-1.18,5.86-1.08,6.05-1.26,12.36-.47,19.27,1.12,9.84,2.6,16.85,6.06,24.33h0c8.57,18.08,16.41,27.61,31.06,27.61,15.4,0,28.26-13.02,31.34-30.37.2-1.12.5-2.07.7-3.35,1.18-7.63,2.5-16.11,1.83-23.94Z"/>
          <path class="cls-1" d="M361,44.73c4.46-17.63,7.32-20.33,8.5-22.63.67-1.3,1.72-3.12,2.85-4.48,7.13-8.57,14.93-15.11,25.57-16.2,3.49-.64,7.05-.79,10.42.26,3.79,1.19,4.94,1.75,8.71,4.07,10.01,6.23,14.76,15.25,15.51,31.03.1,2.02.19,3.99.22,5.97.08,6.15-.75,12.4-2.65,19.09-2.7,9.53-5.29,16.21-9.92,23.03h0c-11.38,16.46-20.66,24.59-35.11,22.23-15.2-2.49-25.78-17.41-26.02-35.03-.02-1.14-.16-2.12-.15-3.42.07-7.72.13-16.3,2.07-23.92Z"/>
          <path class="cls-1" d="M500.58,104.13c-1.55-9.3-6.07-17.92-13.15-24.14-8.91-7.84-24.08-11.05-39.57,3.79-26.95,25.8-27.39,48.36-26.97,54.36.08,1.16.15,2.31.18,3.47.22,8.68,3.4,43.38,40.78,27.23,0,0,35.01-11.33,39.21-51.41.46-4.43.26-8.91-.47-13.31h0Z"/>
        </g>
        <path class="cls-1" d="M440.52,237.48c-5.05-19.77-25.65-60.89-75.85-87.86-1.11-.59-2.03-1.08-3.55-1.87-6.32-3.3-16.23-4.99-21.18-4.89-5.43.1-13.17,1.83-18.09,3.65-.83.31.82-.33,0,0-55.22,22.28-76.31,65.83-82.35,89.76-.22.86-.49,1.7-.77,2.54-1.18,3.44-1.83,7.1-1.83,10.89,0,20.66,18.9,37.41,42.22,37.41,5.84,0,11.4-1.05,16.46-2.95,2.19-.82,4.28-1.81,6.27-2.93,2.67-1.52,8.02-4.62,10.72-6.08,14.45-7.8,32.2-9.4,53.1-.72,3.82,1.59,4.4,2.45,8.36,4.23,3.71,1.66,7.04,4.27,11.06,5.66,4.75,1.64,9.91,2.55,15.31,2.55,23.32,0,42.22-16.75,42.22-37.41,0-3.41-.52-6.71-1.48-9.85-.22-.7-.43-1.4-.61-2.11Z"/>
      </g>
      <g>
        <path d="M104.72,396.1c-3.84,7.09-9.84,12.81-18.01,17.15-8.18,4.34-18.49,6.51-30.93,6.51h-25.39v58.17H0v-151.49h55.78c11.72,0,21.7,2.03,29.95,6.08,8.25,4.05,14.43,9.62,18.56,16.71,4.12,7.09,6.19,15.12,6.19,24.09,0,8.1-1.92,15.7-5.75,22.79ZM73.14,389.48c4.05-3.83,6.08-9.22,6.08-16.17,0-14.76-8.25-22.14-24.74-22.14h-24.09v44.06h24.09c8.39,0,14.61-1.92,18.67-5.75Z"/>
        <path d="M230.05,426.92h-87.9c.72,8.68,3.76,15.48,9.12,20.4,5.35,4.92,11.94,7.38,19.75,7.38,11.29,0,19.32-4.85,24.09-14.54h32.77c-3.47,11.58-10.13,21.09-19.97,28.54-9.84,7.45-21.92,11.18-36.24,11.18-11.58,0-21.96-2.57-31.14-7.7-9.19-5.13-16.35-12.41-21.49-21.81-5.14-9.4-7.7-20.25-7.7-32.55s2.53-23.37,7.6-32.77c5.06-9.4,12.15-16.64,21.27-21.7,9.12-5.06,19.6-7.6,31.47-7.6s21.67,2.46,30.71,7.38c9.04,4.92,16.06,11.9,21.05,20.94,4.99,9.04,7.49,19.42,7.49,31.14,0,4.34-.29,8.25-.87,11.72ZM199.45,406.52c-.15-7.81-2.97-14.07-8.46-18.77-5.5-4.7-12.23-7.05-20.18-7.05-7.52,0-13.86,2.28-18.99,6.84-5.14,4.56-8.28,10.89-9.44,18.99h57.08Z"/>
        <path d="M275.63,382.64v58.17c0,4.05.98,6.98,2.93,8.79,1.95,1.81,5.24,2.71,9.88,2.71h14.11v25.61h-19.1c-25.61,0-38.42-12.44-38.42-37.33v-57.95h-14.32v-24.96h14.32v-29.73h30.6v29.73h26.91v24.96h-26.91Z"/>
        <path d="M331.19,474.56c-7.81-3.54-14-8.36-18.56-14.43s-7.05-12.8-7.49-20.18h30.6c.58,4.63,2.86,8.46,6.84,11.5,3.98,3.04,8.93,4.56,14.87,4.56s10.31-1.16,13.56-3.47c3.26-2.31,4.88-5.28,4.88-8.9,0-3.91-1.99-6.84-5.97-8.79-3.98-1.95-10.31-4.09-18.99-6.4-8.97-2.17-16.31-4.41-22.03-6.73-5.72-2.31-10.63-5.86-14.76-10.63-4.12-4.77-6.19-11.21-6.19-19.32,0-6.65,1.92-12.73,5.75-18.23,3.83-5.5,9.33-9.84,16.5-13.02,7.16-3.18,15.59-4.77,25.28-4.77,14.32,0,25.75,3.58,34.29,10.74,8.54,7.16,13.24,16.82,14.11,28.97h-29.08c-.43-4.78-2.42-8.57-5.97-11.39-3.55-2.82-8.29-4.23-14.22-4.23-5.5,0-9.73,1.01-12.7,3.04-2.97,2.03-4.45,4.85-4.45,8.46,0,4.05,2.02,7.13,6.08,9.22,4.05,2.1,10.34,4.23,18.88,6.4,8.68,2.17,15.84,4.42,21.49,6.73,5.64,2.32,10.53,5.9,14.65,10.74,4.12,4.85,6.26,11.25,6.4,19.21,0,6.94-1.92,13.17-5.75,18.67-3.84,5.5-9.33,9.8-16.5,12.91s-15.52,4.67-25.07,4.67-18.66-1.77-26.48-5.32Z"/>
        <path d="M522.61,372.01c-3.47-6.36-8.25-11.21-14.32-14.54-6.08-3.33-13.17-4.99-21.27-4.99-8.97,0-16.93,2.03-23.87,6.08-6.95,4.05-12.37,9.84-16.28,17.36-3.91,7.52-5.86,16.21-5.86,26.04s1.99,18.96,5.97,26.48c3.98,7.52,9.51,13.31,16.6,17.36,7.09,4.05,15.33,6.08,24.74,6.08,11.57,0,21.05-3.07,28.43-9.22,7.38-6.15,12.23-14.72,14.54-25.72h-52.09v-23.22h82.04v26.48c-2.03,10.56-6.37,20.33-13.02,29.3-6.66,8.97-15.23,16.17-25.72,21.59-10.49,5.43-22.25,8.14-35.27,8.14-14.62,0-27.82-3.29-39.61-9.88-11.79-6.58-21.05-15.73-27.78-27.45-6.73-11.72-10.09-25.03-10.09-39.93s3.36-28.25,10.09-40.04c6.73-11.79,15.99-20.98,27.78-27.56,11.79-6.58,24.92-9.88,39.39-9.88,17.07,0,31.9,4.16,44.49,12.48,12.59,8.32,21.27,20,26.04,35.05h-34.94Z"/>
        <path d="M593.14,472.17c-9.26-5.13-16.53-12.41-21.81-21.81-5.28-9.4-7.92-20.25-7.92-32.55s2.71-23.15,8.14-32.56c5.43-9.4,12.84-16.67,22.25-21.81,9.4-5.13,19.89-7.71,31.47-7.71s22.06,2.57,31.47,7.71c9.4,5.14,16.82,12.41,22.25,21.81,5.43,9.41,8.14,20.26,8.14,32.56s-2.79,23.15-8.36,32.55c-5.57,9.41-13.1,16.68-22.57,21.81-9.48,5.14-20.08,7.7-31.8,7.7s-21.99-2.57-31.25-7.7ZM639.91,449.38c4.85-2.68,8.71-6.69,11.61-12.04,2.89-5.35,4.34-11.86,4.34-19.53,0-11.43-3-20.22-9.01-26.37-6.01-6.15-13.35-9.22-22.03-9.22s-15.95,3.08-21.81,9.22c-5.86,6.15-8.79,14.94-8.79,26.37s2.86,20.22,8.57,26.37c5.71,6.15,12.91,9.22,21.59,9.22,5.5,0,10.67-1.34,15.52-4.02Z"/>
      </g>
    </g>
  </g>
</svg>